<svg xmlns="http://www.w3.org/2000/svg" xmlns:xlink="http://www.w3.org/1999/xlink" viewBox="0 0 109 118"><defs><style>.e25aa906-f027-4e0a-a60f-d441274842c6{opacity:0.79;fill:url(#a13f1724-adfa-499d-a4d7-023bd2a93c52);}</style><linearGradient id="a13f1724-adfa-499d-a4d7-023bd2a93c52" x1="4.47" y1="56.75" x2="101.86" y2="56.75" gradientUnits="userSpaceOnUse"><stop offset="0.18" stop-color="#0921e6" stop-opacity="0.8"/><stop offset="0.73" stop-color="#4a98dd" stop-opacity="0.8"/></linearGradient></defs><title>sireco home - correcciones</title><g id="f1a4472b-fb85-4188-96a8-c4cb40e595ef" data-name="textos"><path class="e25aa906-f027-4e0a-a60f-d441274842c6" d="M4.47,100.68V12.82A7.72,7.72,0,0,1,9.23,8.05H97.1a7.77,7.77,0,0,1,4.76,4.77v87.86a7.68,7.68,0,0,1-4.76,4.76H9.23A7.73,7.73,0,0,1,4.47,100.68ZM97.07,54.3V15.66c0-2.74-.07-2.81-2.79-2.81H55.55c0,5.09,0,9.84,0,14.59,0,2.52-1.25,3.6-3.71,3.06a11,11,0,0,1-3.35-1.42c-3.19-2-6.22-1.75-8.34.72a5.73,5.73,0,0,0,.08,7.69c2.19,2.47,5.05,2.63,8.35.61a11.09,11.09,0,0,1,3.36-1.38c2.34-.51,3.59.57,3.61,2.95,0,4.18,0,8.37,0,12.55v2.08H67.1c-2.22-7.77-1.37-11.73,3.14-14.89a10.59,10.59,0,0,1,12.16.05c5.19,4,5.69,9.11,2.92,14.85Zm-46.3,46.35c0-5.14,0-10,0-14.78,0-2.23,1.08-3.28,3.26-2.88,1.43.27,2.74,1.17,4.16,1.62s3,1.15,4.48,1c2.62-.24,4.24-2,4.8-4.6a5.54,5.54,0,0,0-2.34-5.88,5.66,5.66,0,0,0-6.49-.35,19.29,19.29,0,0,1-4.26,2c-2.32.59-3.58-.55-3.61-2.93s0-4.76,0-7.14V59.31H39.12c2.57,6.24,1.77,10.81-2.36,14.23a10.25,10.25,0,0,1-12.62.59,14.26,14.26,0,0,1-4-5.15c-1.53-3.24-.72-6.57.93-9.71H9.26V97.83c0,2.74.08,2.82,2.78,2.82H50.77ZM50.7,42.72c-6.69,2.49-11.09,1.7-14.42-2.47a10.72,10.72,0,0,1-.49-12.69C38.92,23,43,22.15,50.65,24.39V12.94c-.45,0-.8-.09-1.14-.09-12.69,0-25.37,0-38,0-2,0-2.22,1-2.22,2.57,0,12.4,0,24.8,0,37.19,0,.55.1,1.1.16,1.78H23.81c2.62,0,3.71,1.31,3.07,3.87-.31,1.23-1.14,2.31-1.56,3.52A12.13,12.13,0,0,0,24.23,66a5.52,5.52,0,0,0,4.62,5,5.59,5.59,0,0,0,5.89-2.28c1.56-2,1.52-4.36.29-6.68a18.72,18.72,0,0,1-1.93-4.93c-.34-1.66.7-2.71,2.47-2.79.94,0,1.88,0,2.81,0H50.7Zm4.93,57.93H94.26c2.73,0,2.81-.08,2.81-2.8V59.14c-5.16,0-10,0-14.8,0-2.22,0-3.28-1.1-2.87-3.26.27-1.43,1.16-2.74,1.63-4.15a12.4,12.4,0,0,0,1.06-4.27,5.53,5.53,0,0,0-4.65-5,5.6,5.6,0,0,0-5.88,2.32c-1.55,2-1.52,4.35-.24,6.68A17.48,17.48,0,0,1,73.23,56c.43,2-.67,3.13-2.73,3.18-1.8,0-3.61,0-5.41,0H55.71V70.78c6.35-2.51,10.87-1.73,14.22,2.34a10.15,10.15,0,0,1,.73,12.43,14,14,0,0,1-5,4.2c-3.28,1.63-6.7.86-10-.88Z"/></g></svg>