<svg xmlns="http://www.w3.org/2000/svg" xmlns:xlink="http://www.w3.org/1999/xlink" viewBox="0 0 136 150"><defs><style>.ab6e8ee7-e467-49c5-9fd9-2d2e0e136f8c{opacity:0.79;}.b406b1e7-c14c-466a-aa5e-1479d87055e8{fill:url(#ae8e41f0-346e-4cff-97fb-1d16057ff7c1);}.e89afdc1-a2ed-411b-9ed6-f597d6173e2a{fill:url(#b2ff0a88-6913-44a3-ae07-862de8245ab1);}.bdfb54bc-165d-4267-8169-e7f549515ce1{fill:url(#bcce242b-104a-4328-8a5a-eef84443d2e8);}.e576959d-6367-403e-b04d-38ec759a033c{fill:url(#a48966c3-80de-4834-a08d-a7b519eebd9f);}.fdd6051e-86a0-4862-a1c1-83754c52296c{fill:url(#b8a15749-c9cc-4fb5-83f8-4e27457e6d06);}.bd95b03c-0061-4515-a0bd-805d7e98cbf5{fill:url(#bd9b20a1-ff06-4172-9ade-78a8d8839ccb);}.b51e1368-637c-405d-81c5-b21c703a01e6{fill:url(#f7642f64-fdde-454d-85b4-bd19a8c2213f);}.e7431d3b-40cd-4e87-9807-2bb6c1472160{fill:url(#af8b69c2-cca2-4e29-b76b-e9f2252ec0de);}.e49593e8-4a62-4052-88d1-9c2869fe8e1c{fill:url(#a8231859-a466-446c-bf54-a4275c4fa14e);}</style><linearGradient id="ae8e41f0-346e-4cff-97fb-1d16057ff7c1" x1="20.52" y1="75.06" x2="107.28" y2="75.06" gradientUnits="userSpaceOnUse"><stop offset="0.18" stop-color="#0921e6" stop-opacity="0.8"/><stop offset="0.73" stop-color="#4a98dd" stop-opacity="0.8"/></linearGradient><linearGradient id="b2ff0a88-6913-44a3-ae07-862de8245ab1" x1="20.52" y1="30.53" x2="47.58" y2="30.53" xlink:href="#ae8e41f0-346e-4cff-97fb-1d16057ff7c1"/><linearGradient id="bcce242b-104a-4328-8a5a-eef84443d2e8" x1="36.67" y1="59.76" x2="89.94" y2="59.76" xlink:href="#ae8e41f0-346e-4cff-97fb-1d16057ff7c1"/><linearGradient id="a48966c3-80de-4834-a08d-a7b519eebd9f" x1="36.67" y1="71.03" x2="89.94" y2="71.03" xlink:href="#ae8e41f0-346e-4cff-97fb-1d16057ff7c1"/><linearGradient id="b8a15749-c9cc-4fb5-83f8-4e27457e6d06" x1="36.67" y1="81.13" x2="89.94" y2="81.13" xlink:href="#ae8e41f0-346e-4cff-97fb-1d16057ff7c1"/><linearGradient id="bd9b20a1-ff06-4172-9ade-78a8d8839ccb" x1="36.51" y1="92.4" x2="89.78" y2="92.4" xlink:href="#ae8e41f0-346e-4cff-97fb-1d16057ff7c1"/><linearGradient id="f7642f64-fdde-454d-85b4-bd19a8c2213f" x1="36.67" y1="103.67" x2="86.62" y2="103.67" xlink:href="#ae8e41f0-346e-4cff-97fb-1d16057ff7c1"/><linearGradient id="af8b69c2-cca2-4e29-b76b-e9f2252ec0de" x1="36.67" y1="113.3" x2="79.63" y2="113.3" xlink:href="#ae8e41f0-346e-4cff-97fb-1d16057ff7c1"/><linearGradient id="a8231859-a466-446c-bf54-a4275c4fa14e" x1="75.25" y1="110.82" x2="124.08" y2="110.82" xlink:href="#ae8e41f0-346e-4cff-97fb-1d16057ff7c1"/></defs><title>mensajes</title><g id="b1cf3294-5ab3-47fa-8022-560c698ff08e" data-name="textos"><g class="ab6e8ee7-e467-49c5-9fd9-2d2e0e136f8c"><path class="b406b1e7-c14c-466a-aa5e-1479d87055e8" d="M74.53,136H23a2.48,2.48,0,0,1-2.48-2.48v-89a2.46,2.46,0,0,1,.56-1.56L43.64,15.06a2.48,2.48,0,0,1,1.93-.91H104.8a2.48,2.48,0,0,1,2.48,2.48V77.19a2.48,2.48,0,1,1-5,0V19.11H46.75L25.48,45.31V131H74.53a2.48,2.48,0,1,1,0,5Z"/><path class="e89afdc1-a2ed-411b-9ed6-f597d6173e2a" d="M45.1,46.91H23a2.48,2.48,0,0,1-1.94-4l22.1-27.81a2.49,2.49,0,0,1,2.76-.79,2.46,2.46,0,0,1,1.66,2.34v27.8A2.48,2.48,0,0,1,45.1,46.91Zm-17-5H42.62V23.73Z"/><path class="bdfb54bc-165d-4267-8169-e7f549515ce1" d="M88.08,61.62H38.53a1.86,1.86,0,0,1,0-3.72H88.08a1.86,1.86,0,0,1,0,3.72Z"/><path class="e576959d-6367-403e-b04d-38ec759a033c" d="M88.08,72.89H38.53a1.86,1.86,0,0,1,0-3.72H88.08a1.86,1.86,0,0,1,0,3.72Z"/><path class="fdd6051e-86a0-4862-a1c1-83754c52296c" d="M88.08,83H38.53a1.86,1.86,0,0,1,0-3.72H88.08a1.86,1.86,0,0,1,0,3.72Z"/><path class="bd95b03c-0061-4515-a0bd-805d7e98cbf5" d="M87.92,94.26H38.37a1.86,1.86,0,0,1,0-3.72H87.92a1.86,1.86,0,0,1,0,3.72Z"/><path class="b51e1368-637c-405d-81c5-b21c703a01e6" d="M84.76,105.53H38.53a1.86,1.86,0,1,1,0-3.72H84.76a1.86,1.86,0,0,1,0,3.72Z"/><path class="e7431d3b-40cd-4e87-9807-2bb6c1472160" d="M77.77,115.16H38.53a1.86,1.86,0,1,1,0-3.72H77.77a1.86,1.86,0,0,1,0,3.72Z"/><path class="e49593e8-4a62-4052-88d1-9c2869fe8e1c" d="M87.15,144.29a6.1,6.1,0,0,1-3.23-.94,70.94,70.94,0,0,1-7.47-5.49,1.72,1.72,0,0,1-.4-.49c-.1-.15-2.21-3.92.83-9.44,2.53-4.58,23.64-45.78,23.86-46.19s2.92-5,7.52-4.33c3.72.52,12.5,6,13.49,6.65.39.27,3,2.3,2.18,7.74-.68,4.58-18.53,36.92-22.1,43.35a1.86,1.86,0,1,1-3.25-1.8c8.14-14.68,21.22-39.08,21.67-42.09.42-2.84-.42-3.93-.61-4.14-3.5-2.2-9.71-5.72-11.89-6S104,83.49,104,83.51c-.82,1.62-21.31,41.58-23.86,46.21-1.61,2.94-1.18,4.93-1,5.57a63.77,63.77,0,0,0,6.68,4.89c1.77,1.08,3.63-.45,4.17-1l20.8-39.7a2.36,2.36,0,0,1,.2-.31h0a2.58,2.58,0,0,0,.46-1.86c-.23-1-1.41-1.86-2.36-2.36a5.17,5.17,0,0,0-3.74-.76,2.51,2.51,0,0,0-1.45,1.17L87.52,126.45a1.86,1.86,0,1,1-3.29-1.73l16.4-31a6.27,6.27,0,0,1,3.54-3c2-.66,4.25-.33,6.71,1s3.86,3,4.26,4.94a6.22,6.22,0,0,1-1.08,4.73L93.19,141.2a1.87,1.87,0,0,1-.27.4A8.4,8.4,0,0,1,87.15,144.29Z"/></g></g></svg>