<svg xmlns="http://www.w3.org/2000/svg" xmlns:xlink="http://www.w3.org/1999/xlink" viewBox="0 0 134 122"><defs><style>.a30e57bc-623c-4134-9315-45fae13ce9c3{opacity:0.79;}.a9607982-b232-475e-a160-5cddef3998f3{fill:url(#bd2cb877-bf7c-45ed-bc1f-b827d99398bf);}.b678d4e5-29cb-4b8b-8a0c-50c40583f7c3{fill:url(#b41a8e09-070c-4814-8f5b-9fc22ac2b709);}.ad72d0c1-4776-415d-8c97-636acd963e19{fill:url(#bf815762-5b69-4519-ac74-8ea6ad59f2c9);}.e9ca3842-c6f3-49c5-9b52-1a7cfab37514{fill:url(#a6a88d74-f6ba-4fd2-a74e-118b23c3b2c5);}.f91cf500-25e4-476d-87e3-029d21bf587c{fill:url(#b4ed097a-ec41-4dd2-af97-f2a6fe259316);}.b0a347d5-07f5-447c-803f-d36664edf083{fill:url(#ab2b1e21-5005-4b8e-bd52-c8cf143a4deb);}.ab754887-9506-420a-9556-1ca329bcdc35{fill:url(#a76dab13-5b3b-4147-bc50-ec06f0dda992);}</style><linearGradient id="bd2cb877-bf7c-45ed-bc1f-b827d99398bf" x1="15.48" y1="65.22" x2="121.94" y2="65.22" gradientUnits="userSpaceOnUse"><stop offset="0.18" stop-color="#0921e6" stop-opacity="0.8"/><stop offset="0.73" stop-color="#4a98dd" stop-opacity="0.8"/></linearGradient><linearGradient id="b41a8e09-070c-4814-8f5b-9fc22ac2b709" x1="25" y1="68.46" x2="112.17" y2="68.46" xlink:href="#bd2cb877-bf7c-45ed-bc1f-b827d99398bf"/><linearGradient id="bf815762-5b69-4519-ac74-8ea6ad59f2c9" x1="96.39" y1="29.01" x2="100.67" y2="29.01" xlink:href="#bd2cb877-bf7c-45ed-bc1f-b827d99398bf"/><linearGradient id="a6a88d74-f6ba-4fd2-a74e-118b23c3b2c5" x1="104.88" y1="29.02" x2="109.16" y2="29.02" xlink:href="#bd2cb877-bf7c-45ed-bc1f-b827d99398bf"/><linearGradient id="b4ed097a-ec41-4dd2-af97-f2a6fe259316" x1="62.53" y1="70.54" x2="75.14" y2="70.54" xlink:href="#bd2cb877-bf7c-45ed-bc1f-b827d99398bf"/><linearGradient id="ab2b1e21-5005-4b8e-bd52-c8cf143a4deb" x1="78.23" y1="71.61" x2="97.99" y2="71.61" xlink:href="#bd2cb877-bf7c-45ed-bc1f-b827d99398bf"/><linearGradient id="a76dab13-5b3b-4147-bc50-ec06f0dda992" x1="39.42" y1="71.61" x2="59.18" y2="71.61" xlink:href="#bd2cb877-bf7c-45ed-bc1f-b827d99398bf"/></defs><title>mensajes</title><g id="b4134d74-1141-40ad-9630-ed11e2ae1702" data-name="textos"><g class="a30e57bc-623c-4134-9315-45fae13ce9c3"><path class="a9607982-b232-475e-a160-5cddef3998f3" d="M68.65,112.07H38.94c-5,0-10.1,0-15.15,0a8.23,8.23,0,0,1-8.17-6.76,8.79,8.79,0,0,1-.14-1.62q0-10.18,0-20.38V48.14q0-10.71,0-21.43a8.1,8.1,0,0,1,2.33-5.83,8,8,0,0,1,5.86-2.5c5,0,9.92,0,14.88,0l2.25,0H98.6c5,0,10,0,15,0a8.1,8.1,0,0,1,6.18,2.74,8,8,0,0,1,2.11,5.5c0,7.6,0,15.2,0,22.8q0,17,0,34c0,6.78,0,13.56,0,20.34a8.1,8.1,0,0,1-5.85,7.92,9.29,9.29,0,0,1-2.57.38q-18.14,0-36.26,0Zm.12-89.44H23.92a4,4,0,0,0-4.2,4.2V103.6a3.94,3.94,0,0,0,4.18,4.21h89.55a4,4,0,0,0,4.25-4.26v-49c0-9.2,0-18.41,0-27.61a4.21,4.21,0,0,0-4.37-4.35c-3.52.1-7,0-10.57,0Z"/><path class="b678d4e5-29cb-4b8b-8a0c-50c40583f7c3" d="M68.54,102H31.81c-3.32,0-6.07-2-6.69-4.83A6.43,6.43,0,0,1,25,96V40.92a5.44,5.44,0,0,1,1.91-4.16A7,7,0,0,1,31.71,35c4.06,0,8.12,0,12.18,0l1.84,0H93.06c4.1,0,8.21,0,12.31,0a7.14,7.14,0,0,1,5.06,2,5.32,5.32,0,0,1,1.73,3.93c0,5.44,0,10.87,0,16.31q0,12.16,0,24.32,0,7.27,0,14.55a6,6,0,0,1-4.79,5.66,8.76,8.76,0,0,1-2.1.27q-14.85,0-29.7,0Zm.09-64H31.91c-2.08,0-3.43,1.19-3.43,3,0,2.6,0,5.2,0,7.8V62.37q0,7.42,0,14.84,0,9.35,0,18.7c0,1.82,1.35,3,3.43,3h73.32c2.13,0,3.47-1.18,3.47-3.05v-35c0-6.59,0-13.17,0-19.76a3.25,3.25,0,0,0-3.58-3.1c-2.88.07-5.77,0-8.65,0Z"/><path class="ad72d0c1-4776-415d-8c97-636acd963e19" d="M100.67,29A2.14,2.14,0,0,1,96.39,29a2.14,2.14,0,0,1,4.28.06Z"/><path class="e9ca3842-c6f3-49c5-9b52-1a7cfab37514" d="M107,31.14A2.12,2.12,0,1,1,109.15,29,2.15,2.15,0,0,1,107,31.14Z"/><path class="f91cf500-25e4-476d-87e3-029d21bf587c" d="M71,47l4.14.78c-2.82,15.45-5.63,30.86-8.45,46.33l-4.16-.73Q66.76,70.17,71,47Z"/><path class="b0a347d5-07f5-447c-803f-d36664edf083" d="M78.24,80.53l12.48-8.92L78.23,62.69l2.46-3.44L98,71.61,80.68,84Z"/><path class="ab754887-9506-420a-9556-1ca329bcdc35" d="M59.18,80.53,56.74,84,39.42,71.61l17.3-12.36,2.46,3.44L46.7,71.61Z"/></g></g></svg>