<svg xmlns="http://www.w3.org/2000/svg" viewBox="0 0 70 77"><defs><style>.ae6798e8-5b83-4826-90ab-1d3e92959328{fill:#18ebf2;}</style></defs><title>sireco home - correcciones</title><g id="aeeeeb2f-1c32-425c-be4a-be25f2a1715c" data-name="textos"><path class="ae6798e8-5b83-4826-90ab-1d3e92959328" d="M34.92,7.07h3c.26,0,.53.1.79.13,1.31.16,2.63.27,3.94.49,5.34.9,9.22,4.16,12.69,8a1.13,1.13,0,0,1-.05,1.61c-.39.45-.79.88-1.19,1.33a22.06,22.06,0,0,1,9.83,17.44,22.6,22.6,0,0,1-7.22,18.6,14.87,14.87,0,0,1,2.65.82,3.48,3.48,0,0,1,.61,6,2.57,2.57,0,0,0-1.22,2.73c0,.39,0,.78,0,1.17,0,1.23-.34,1.57-1.59,1.57-7.08,0-14.15,0-21.23,0a2.06,2.06,0,0,0-1.71.59H10.52a1.49,1.49,0,0,1-.84-1.69c.15-1.07.29-2.14.42-3.15a16.76,16.76,0,0,1-1.84-.56,4,4,0,0,1-2.26-3v-1a4.66,4.66,0,0,1,1.8-2.65c.12-.08.13-.36.14-.55,0-1.69,0-3.38,0-5.07,0-3.24-.06-6.48-.07-9.72,0-2.15-.12-4.31.06-6.44a31.53,31.53,0,0,1,3.18-11C15.31,14.05,22.15,8.83,31.82,7.45,32.85,7.3,33.88,7.19,34.92,7.07Zm18,9.45c-.06-.09-.07-.14-.1-.17l-1.07-1.07A18,18,0,0,0,42.5,10a31,31,0,0,0-11.24-.14,24,24,0,0,0-9.61,3.76,25.55,25.55,0,0,0-9.21,11.81,27.41,27.41,0,0,0-2.32,11.72c.09,1.68.05,3.38.06,5.06,0,4,0,7.95.05,11.93,0,.23,0,.47,0,.74,2.23,0,4.37,0,6.52,0a2,2,0,0,0,.71-.2,12.9,12.9,0,0,1,9.62,0,3.6,3.6,0,0,0,1.26.23c7.21,0,14.43-.08,21.65.07a6.58,6.58,0,0,0,5.27-2.12c.35-.36.72-.7,1.06-1.07A21.23,21.23,0,0,0,57.8,25.36a18.44,18.44,0,0,0-5.31-4.94L41.8,32.15a10.06,10.06,0,0,1,.32,14.56l4.64,4.93.28.3a1.2,1.2,0,0,1,.05,1.76,1.18,1.18,0,0,1-1.75-.19c-1.48-1.56-3-3.11-4.4-4.7-.46-.52-.78-.67-1.46-.3a9.06,9.06,0,0,1-5.71,1A10,10,0,0,1,26.5,34.22a.57.57,0,0,0-.11-.86c-.69-.7-1.35-1.42-2-2.15a1.12,1.12,0,0,1-.17-1.39,1,1,0,0,1,1.22-.52,2,2,0,0,1,.83.56c.7.71,1.37,1.45,2.06,2.18a10.29,10.29,0,0,1,11.6-1.25Zm-10.12,23A7.77,7.77,0,1,0,35,47.28,7.75,7.75,0,0,0,42.79,39.55ZM12.06,65.14H32.65a10.37,10.37,0,0,0-20.59,0Zm19.22-8c.74,1,1.43,1.91,2.06,2.85a.91.91,0,0,0,.87.49c7.21,0,14.42,0,21.63,0A7.37,7.37,0,0,0,58,60.07a1.38,1.38,0,0,0,0-2.69,4.19,4.19,0,0,0-1.41-.21H31.28ZM56.42,64.6a2.12,2.12,0,0,0,0-.27c0-.42,0-.83,0-1.24,0-.9,0-.91-.93-.91H34.41L35,64.6ZM11,60.46l2.41-3.24c-1.21,0-2.42-.06-3.61,0a1.58,1.58,0,0,0-1.47,1.47,1.75,1.75,0,0,0,1.52,1.53C10.24,60.3,10.63,60.39,11,60.46Z"/><path class="ae6798e8-5b83-4826-90ab-1d3e92959328" d="M59.41,37c-.15.15-.33.49-.57.54-.46.09-.58-.28-.63-.69a21,21,0,0,0-2.07-7.32,9.86,9.86,0,0,0-4.39-4.63.88.88,0,0,1-.35-.75.5.5,0,0,1,.83-.25A19,19,0,0,1,55.05,26a15.88,15.88,0,0,1,3.84,8C59.09,34.94,59.21,35.89,59.41,37Z"/></g></svg>