<svg xmlns="http://www.w3.org/2000/svg" xmlns:xlink="http://www.w3.org/1999/xlink" viewBox="0 0 168 137"><defs><style>.a474fc79-06cd-4915-bdf5-24b88de20b32{opacity:0.79;fill:url(#b1b92cd3-e845-4e6a-a2ef-101e1c7d8266);}</style><linearGradient id="b1b92cd3-e845-4e6a-a2ef-101e1c7d8266" x1="10.77" y1="79.22" x2="157.81" y2="79.22" gradientUnits="userSpaceOnUse"><stop offset="0.18" stop-color="#0921e6" stop-opacity="0.8"/><stop offset="0.73" stop-color="#4a98dd" stop-opacity="0.8"/></linearGradient></defs><title>mensajes</title><g id="e8f3f09e-e6d0-4272-becc-c479deacdad3" data-name="textos"><path class="a474fc79-06cd-4915-bdf5-24b88de20b32" d="M10.77,61.07a16,16,0,0,1,3.66-1.85Q83.75,44.79,153.11,30.56c1.43-.29,3.13.71,4.7,1.11v2c-3.46,9.1-7,18.18-10.36,27.31Q135.69,92.67,124,124.43c-1.52,4.13-2.34,4.37-6.1,1.93-8-5.21-16.08-10.36-24-15.69-2-1.31-3.26-1.19-5.15.1-7.79,5.35-15.7,10.53-23.58,15.76-3.41,2.26-4.74,1.61-5.41-2.31C57.61,111.81,55.41,99.41,53.07,87c-.19-1-1.44-2.07-2.46-2.62C38.94,78.16,27.21,72,15.51,65.8,13.89,64.94,12.35,64,10.77,63Zm109.11,60.82C130,94.4,140,67.21,150.34,39.18l-74,54.44Zm16.61-82.42-.24-.56L20.57,62.83c1.44.88,2.2,1.39,3,1.82,9.59,5.08,19.22,10.1,28.78,15.25a5.08,5.08,0,0,0,5.35,0q27.63-14.3,55.35-28.43Zm-9.16,10.69a7.73,7.73,0,0,0-1.35.13q-33.2,17-66.4,33.95A2.62,2.62,0,0,0,58,87.62c.7,3.4,1.24,6.83,1.88,10.25,1,5.28,2,10.56,3,15.83,2.45-6,4.12-12,6.22-17.9A13.46,13.46,0,0,1,73,90.2c4.19-3.45,8.71-6.5,13.09-9.72ZM87,106.26,73.5,97.53l-6.7,22.1Z"/></g></svg>