<svg xmlns="http://www.w3.org/2000/svg" xmlns:xlink="http://www.w3.org/1999/xlink" viewBox="0 0 129 114"><defs><style>.e755b08f-7b97-4b7a-a0b9-8fb6954b5971,.e93a7114-9a07-4541-b555-37e0ba836350,.f921c3c5-9740-4928-bc05-d1a5653731e3{opacity:0.79;}.e93a7114-9a07-4541-b555-37e0ba836350{fill:url(#e9adff9d-6016-416f-8115-e20ef09de19e);}.e755b08f-7b97-4b7a-a0b9-8fb6954b5971{fill:url(#b7cd6758-b9c7-4941-934b-4b852d4249a8);}.ac09df2b-a251-499d-b891-a65601cf36b0{fill:url(#ac898ccb-a2c4-4995-89da-4ed78bc38aca);}.be171ffd-88b0-4560-9c0e-06c89c68767e{fill:url(#e2665565-98a4-428c-9d06-ad3dcd4fadcb);}.f921c3c5-9740-4928-bc05-d1a5653731e3{fill:url(#e25c7f7e-787a-44be-9a64-f3b430137d99);}</style><linearGradient id="e9adff9d-6016-416f-8115-e20ef09de19e" x1="9.96" y1="77.05" x2="25.29" y2="61.72" gradientUnits="userSpaceOnUse"><stop offset="0.18" stop-color="#0921e6" stop-opacity="0.8"/><stop offset="0.73" stop-color="#4a98dd" stop-opacity="0.8"/></linearGradient><linearGradient id="b7cd6758-b9c7-4941-934b-4b852d4249a8" x1="37.41" y1="76.47" x2="86" y2="27.87" xlink:href="#e9adff9d-6016-416f-8115-e20ef09de19e"/><linearGradient id="ac898ccb-a2c4-4995-89da-4ed78bc38aca" x1="42.28" y1="104.55" x2="96.51" y2="50.32" xlink:href="#e9adff9d-6016-416f-8115-e20ef09de19e"/><linearGradient id="e2665565-98a4-428c-9d06-ad3dcd4fadcb" x1="35.52" y1="65.41" x2="89.77" y2="11.16" xlink:href="#e9adff9d-6016-416f-8115-e20ef09de19e"/><linearGradient id="e25c7f7e-787a-44be-9a64-f3b430137d99" x1="106.76" y1="53.93" x2="122.09" y2="38.61" xlink:href="#e9adff9d-6016-416f-8115-e20ef09de19e"/></defs><title>sireco home - correcciones</title><g id="fe4e1510-4a61-4a3b-a924-4bcfc5381d36" data-name="textos"><path class="e93a7114-9a07-4541-b555-37e0ba836350" d="M8.73,74.41c.66-1.88,1.35-3.75,2-5.64,1.45-4.34,2.86-8.69,4.3-13,.68-2,2.1-2.35,3.53-.76Q24.93,62.09,31.3,69.2c1.59,1.79,1.15,3.1-1.21,3.6-6.18,1.29-12.38,2.55-18.56,3.89a2.37,2.37,0,0,1-2.8-.94Zm18.41-4.58L17.56,59.14,13.09,72.78Z"/><path class="e755b08f-7b97-4b7a-a0b9-8fb6954b5971" d="M57.32,61.13H50c-1.93,0-2.63-1-2-2.83Q52,45.88,56,33.47L58.17,27c.48-1.45.89-1.75,2.44-1.75q10.74,0,21.47,0c2.11,0,2.83,1.21,1.85,3.07L71.74,51.57c-.19.35-.36.71-.63,1.26h1.34c2.83,0,5.66,0,8.5,0,.87,0,1.66.15,2,1a2,2,0,0,1-.59,2.23Q68,72.8,53.68,89.51a1.83,1.83,0,0,1-2.45.67c-.93-.51-1-1.35-.75-2.33Q53.74,75.26,57,62.65C57.07,62.19,57.18,61.73,57.32,61.13ZM55.7,81.42l.19.09L77.53,56.34H76.15c-2.61,0-5.22,0-7.83,0A1.71,1.71,0,0,1,66.7,53.7c.12-.27.27-.53.41-.79l12-23c.18-.35.34-.72.56-1.19h-1c-5.44,0-10.88,0-16.33,0-.89,0-1.2.33-1.45,1.1-2.13,6.63-4.3,13.24-6.46,19.85-.85,2.61-1.68,5.23-2.56,8h6.94c2.17,0,2.8.83,2.26,3-1.15,4.47-2.32,8.94-3.47,13.4C57,76.47,56.34,78.94,55.7,81.42Z"/><path class="ac09df2b-a251-499d-b891-a65601cf36b0" d="M20.77,78.37a20.69,20.69,0,0,1,2.8-.56,1.37,1.37,0,0,1,1,.69A46.69,46.69,0,0,0,41.72,97.24c23.6,14.78,55.53,4.9,66.6-20.67,1-2.42,1.77-5,2.59-7.48.47-1.41,1.21-2,2.26-1.75s1.53,1.23,1.15,2.61c-4.23,15.6-13.53,27.13-28.41,33.44-18.4,7.8-35.71,5.09-51.5-7.11C28.73,91.89,23,84.17,20.77,78.37Z"/><path class="be171ffd-88b0-4560-9c0e-06c89c68767e" d="M111.28,37.25l-.22.13c-3,.78-3,.75-4.51-1.89-8.32-14.31-20.7-22.44-37.2-23.76A46,46,0,0,0,21.27,46.1c-.09.36-.16.73-.28,1.08a1.77,1.77,0,0,1-2.1,1.23,1.65,1.65,0,0,1-1.25-2.06,50.94,50.94,0,0,1,1.77-5.87C26,23.8,38.05,13.22,55.52,9.23c22.37-5.12,45.63,6.42,55.42,27.17C111.06,36.66,111.16,36.93,111.28,37.25Z"/><path class="f921c3c5-9740-4928-bc05-d1a5653731e3" d="M121.49,38.84c1.37,0,2.09,1.08,1.63,2.5q-2.52,7.75-5.06,15.48c-.37,1.14-.72,2.27-1.11,3.39-.58,1.63-2,2-3.19.71q-6.7-7.43-13.35-14.9a1.69,1.69,0,0,1,.91-3c6.62-1.42,13.25-2.78,19.87-4.16ZM119,42.93l-14,2.94,9.57,10.68C116,52,117.44,47.58,119,42.93Z"/></g></svg>