<svg xmlns="http://www.w3.org/2000/svg" xmlns:xlink="http://www.w3.org/1999/xlink" viewBox="0 0 114 137"><defs><style>.acfe71d2-4993-45ee-89dd-daf037567de1{opacity:0.79;}.a4547d4c-355c-488d-9462-b9ada8ebf4f7{fill:url(#bc5b518f-052d-4a29-896f-f010a394cc21);}.eb69ee5e-f5f7-4af3-be9f-daf1fcff32f0{fill:url(#b39d6c98-206b-4f35-b2c0-fa599e754fcc);}.fae61c7d-dfcd-4656-9442-63a82714f43c{fill:url(#ee11a7c4-8e7e-4311-bf27-3a67c4732fe3);}.a38a6c9f-9034-4b74-957c-41f0840f5d11{fill:url(#b886901f-36c3-4aa2-aaeb-94394d879477);}</style><linearGradient id="bc5b518f-052d-4a29-896f-f010a394cc21" x1="15.47" y1="89.86" x2="98.46" y2="89.86" gradientUnits="userSpaceOnUse"><stop offset="0.18" stop-color="#0921e6" stop-opacity="0.8"/><stop offset="0.73" stop-color="#4a98dd" stop-opacity="0.8"/></linearGradient><linearGradient id="b39d6c98-206b-4f35-b2c0-fa599e754fcc" x1="28.81" y1="34.96" x2="85.12" y2="34.96" xlink:href="#bc5b518f-052d-4a29-896f-f010a394cc21"/><linearGradient id="ee11a7c4-8e7e-4311-bf27-3a67c4732fe3" x1="49.12" y1="84.74" x2="64.81" y2="84.74" xlink:href="#bc5b518f-052d-4a29-896f-f010a394cc21"/><linearGradient id="b886901f-36c3-4aa2-aaeb-94394d879477" x1="55" y1="96.51" x2="58.93" y2="96.51" xlink:href="#bc5b518f-052d-4a29-896f-f010a394cc21"/></defs><title>sireco home - correcciones</title><g id="ad4ac42e-1e21-4548-8a30-90effd38ef43" data-name="textos"><g class="acfe71d2-4993-45ee-89dd-daf037567de1"><path class="a4547d4c-355c-488d-9462-b9ada8ebf4f7" d="M89.79,124.88H24.14a8.68,8.68,0,0,1-8.67-8.68V63.52a8.68,8.68,0,0,1,8.67-8.67H89.79a8.68,8.68,0,0,1,8.67,8.67V116.2A8.68,8.68,0,0,1,89.79,124.88ZM24.14,59.3a4.22,4.22,0,0,0-4.22,4.22V116.2a4.23,4.23,0,0,0,4.22,4.23H89.79A4.23,4.23,0,0,0,94,116.2V63.52a4.22,4.22,0,0,0-4.22-4.22Z"/><path class="eb69ee5e-f5f7-4af3-be9f-daf1fcff32f0" d="M82.89,59.3H31a2.23,2.23,0,0,1-2.23-2.23V38.77a28.16,28.16,0,0,1,56.31,0v18.3A2.23,2.23,0,0,1,82.89,59.3ZM33.26,54.85H80.67V38.77a23.71,23.71,0,0,0-47.41,0Z"/><circle class="fae61c7d-dfcd-4656-9442-63a82714f43c" cx="56.96" cy="84.74" r="7.84"/><rect class="a38a6c9f-9034-4b74-957c-41f0840f5d11" x="55" y="88.67" width="3.92" height="15.69" rx="0.39"/></g></g></svg>