<svg xmlns="http://www.w3.org/2000/svg" viewBox="0 0 511 176"><defs><style>.b8f183b0-861d-442f-8cdb-66b21da1c280{fill:#fff;}</style></defs><title>sireco home - correcciones</title><g id="ad224faa-943f-46c4-9ef2-319901ba98f1" data-name="textos"><path class="b8f183b0-861d-442f-8cdb-66b21da1c280" d="M160.79,152.86l9.64-11.51a32.12,32.12,0,0,0,20.25,7.49c4.64,0,7.13-1.6,7.13-4.28v-.18c0-2.58-2.05-4-10.52-6-13.29-3-23.55-6.78-23.55-19.63v-.18c0-11.59,9.19-20,24.17-20,10.62,0,18.91,2.86,25.69,8.3L205,119.14c-5.71-4-11.95-6.16-17.48-6.16-4.2,0-6.25,1.79-6.25,4v.18c0,2.85,2.14,4.1,10.8,6.06,14.36,3.12,23.28,7.76,23.28,19.45v.18c0,12.75-10.08,20.34-25.25,20.34C179,163.21,168.47,159.73,160.79,152.86Z"/><path class="b8f183b0-861d-442f-8cdb-66b21da1c280" d="M224,99.69h17.4v62.44H224Z"/><path class="b8f183b0-861d-442f-8cdb-66b21da1c280" d="M252.86,99.69h29.52c9.55,0,16.15,2.5,20.34,6.78,3.66,3.57,5.53,8.39,5.53,14.54v.18c0,9.55-5.08,15.88-12.84,19.18l14.89,21.76h-20l-12.57-18.91h-7.59v18.91h-17.3Zm28.72,30c5.89,0,9.28-2.86,9.28-7.41v-.18c0-4.9-3.57-7.4-9.37-7.4H270.16v15Z"/><path class="b8f183b0-861d-442f-8cdb-66b21da1c280" d="M317,99.69h50.22v14.72H334.13v9.46h30v13.64h-30v9.91h33.54v14.71H317Z"/><path class="b8f183b0-861d-442f-8cdb-66b21da1c280" d="M373.92,131.09v-.18c0-18.19,14-32.47,32.91-32.47,12.76,0,21,5.36,26.5,13l-13,10.08c-3.57-4.46-7.67-7.32-13.65-7.32-8.74,0-14.89,7.41-14.89,16.51v.17c0,9.37,6.15,16.68,14.89,16.68,6.52,0,10.35-3,14.1-7.58l13,9.28c-5.89,8.12-13.82,14.09-27.65,14.09C388.28,163.38,373.92,149.74,373.92,131.09Z"/><path class="b8f183b0-861d-442f-8cdb-66b21da1c280" d="M437.26,131.09v-.18c0-17.93,14.45-32.47,33.72-32.47s33.54,14.37,33.54,32.3v.17c0,17.93-14.46,32.47-33.72,32.47S437.26,149,437.26,131.09Zm49.59,0v-.18c0-9-6.51-16.86-16.05-16.86S455,121.73,455,130.74v.17c0,9,6.51,16.86,16,16.86S486.85,140.1,486.85,131.09Z"/><path class="b8f183b0-861d-442f-8cdb-66b21da1c280" d="M73.89,27.07h6.77c.59.1,1.17.22,1.76.3,3,.36,5.91.6,8.84,1.09,12,2,20.69,9.34,28.49,18a2.54,2.54,0,0,1-.12,3.61c-.86,1-1.77,2-2.68,3C130.63,62.6,138,75.76,139,92.2s-4.39,30.52-16.19,41.73c2,.6,4.14.9,5.94,1.84,5.34,2.78,6.21,10,1.35,13.35-2.55,1.75-3,3.58-2.73,6.14.07.86,0,1.74,0,2.61,0,2.77-.77,3.54-3.57,3.54-15.88,0-31.77,0-47.65,0-1.48,0-2.8.15-3.83,1.31H19.15a3.28,3.28,0,0,1-1.88-3.77c.32-2.4.63-4.81.93-7.09a31.62,31.62,0,0,1-4.12-1.24c-2.88-1.26-4.34-3.71-5.08-6.66v-2.15a10.48,10.48,0,0,1,4-5.93c.27-.18.31-.82.31-1.25,0-3.79,0-7.58,0-11.37,0-7.28-.12-14.55-.14-21.82,0-4.82-.29-9.66.13-14.44a70.69,70.69,0,0,1,7.12-24.64C29.89,42.75,45.23,31,66.93,27.92,69.25,27.59,71.57,27.35,73.89,27.07Zm40.37,21.22a2.3,2.3,0,0,0-.23-.39c-.79-.8-1.58-1.61-2.38-2.4-5.87-5.78-12.48-10.27-20.75-11.87a69.81,69.81,0,0,0-25.21-.32,53.62,53.62,0,0,0-21.56,8.44c-9.7,6.64-16.29,15.73-20.67,26.5C20,76.67,17.8,85.33,18.25,94.54c.19,3.79.11,7.59.13,11.38q.06,13.36.11,26.75c0,.53.07,1.07.12,1.68,5,0,9.8,0,14.62,0a4.73,4.73,0,0,0,1.6-.44,29,29,0,0,1,21.59-.09,8,8,0,0,0,2.82.53c16.19,0,32.4-.18,48.59.15a14.81,14.81,0,0,0,11.82-4.75c.78-.82,1.61-1.58,2.37-2.41,14.69-16,16.08-41.54,3.22-59.19A41.34,41.34,0,0,0,113.32,57l-24,26.33A22.57,22.57,0,0,1,90.05,116l10.41,11.07.63.67c1.2,1.39,1.25,2.93.12,4s-2.69.88-3.94-.44c-3.3-3.5-6.64-7-9.86-10.55-1-1.15-1.76-1.5-3.28-.66a20.41,20.41,0,0,1-12.81,2.22C54.65,120,46.31,102.39,55,88a1.3,1.3,0,0,0-.24-1.94c-1.55-1.56-3-3.19-4.53-4.82a2.54,2.54,0,0,1-.38-3.12A2.27,2.27,0,0,1,52.61,77a4.47,4.47,0,0,1,1.85,1.26c1.58,1.58,3.09,3.24,4.62,4.88,8.16-6.34,16.8-7.23,26-2.8ZM91.56,100a17.45,17.45,0,1,0-17.44,17.36A17.41,17.41,0,0,0,91.56,100ZM22.61,157.39H68.8C68,146.46,57.66,137,46.45,136.92,34.14,136.78,23.78,145.62,22.61,157.39Zm43.12-17.92c1.66,2.28,3.22,4.29,4.62,6.41A2,2,0,0,0,72.29,147c16.18,0,32.37,0,48.55-.05a16.45,16.45,0,0,0,4.77-.92,3.09,3.09,0,0,0,0-6,9.82,9.82,0,0,0-3.15-.47q-27.58,0-55.15,0Zm56.41,16.7c0-.31.07-.46.08-.61,0-.93,0-1.85,0-2.77,0-2,0-2-2.08-2H72.76l1.29,5.42ZM20.22,146.88l5.41-7.28c-2.72,0-5.42-.12-8.11.05A3.54,3.54,0,0,0,14.24,143c0,1.58,1.51,3.11,3.4,3.42C18.52,146.53,19.4,146.72,20.22,146.88Z"/><path class="b8f183b0-861d-442f-8cdb-66b21da1c280" d="M128.85,94.3c-.34.34-.74,1.11-1.27,1.22-1,.21-1.31-.63-1.43-1.55a47,47,0,0,0-4.63-16.44c-2.29-4.38-5.26-8.15-9.86-10.39a1.89,1.89,0,0,1-.77-1.67,1.11,1.11,0,0,1,1.85-.56,42,42,0,0,1,6.33,4.74c4.82,5,7.17,11.23,8.61,17.86C128.14,89.61,128.41,91.74,128.85,94.3Z"/></g></svg>