<svg xmlns="http://www.w3.org/2000/svg" viewBox="0 0 196 50"><defs><style>.bf99c226-b042-4ac9-b90d-cb93b496f63b{fill:#fff;}</style></defs><title>sireco login (1)</title><g id="b44d7f33-3adf-4dc2-9ec2-1f57ee230114" data-name="click"><path class="bf99c226-b042-4ac9-b90d-cb93b496f63b" d="M42.85,5.12v6.26a3,3,0,0,1-1,2.36,3.61,3.61,0,0,1-2.55.88,3.66,3.66,0,0,1-2.55-.86,3.08,3.08,0,0,1-.95-2.39V5.12h1.62v6.27A2,2,0,0,0,38,12.82a1.85,1.85,0,0,0,1.4.5c1.25,0,1.88-.66,1.88-2V5.12Z"/><path class="bf99c226-b042-4ac9-b90d-cb93b496f63b" d="M53.61,14.49H52L47.81,7.84v6.65H46.18V5.12h1.63L52,11.79V5.12h1.61Z"/><path class="bf99c226-b042-4ac9-b90d-cb93b496f63b" d="M66.9,12.07a1.16,1.16,0,0,0-.43-1,5.23,5.23,0,0,0-1.57-.67,7.41,7.41,0,0,1-1.8-.76,2.4,2.4,0,0,1-1.28-2.1,2.28,2.28,0,0,1,.92-1.86A3.74,3.74,0,0,1,65.14,5a4,4,0,0,1,1.74.36,2.81,2.81,0,0,1,1.2,1,2.62,2.62,0,0,1,.44,1.47H66.9a1.44,1.44,0,0,0-.46-1.14,1.9,1.9,0,0,0-1.32-.42,2,2,0,0,0-1.23.34,1.14,1.14,0,0,0-.45,1,1,1,0,0,0,.48.86,5.31,5.31,0,0,0,1.57.67,7.62,7.62,0,0,1,1.76.74,2.94,2.94,0,0,1,1,1,2.56,2.56,0,0,1,.31,1.26,2.22,2.22,0,0,1-.9,1.86,3.91,3.91,0,0,1-2.44.7,4.55,4.55,0,0,1-1.86-.38,3.18,3.18,0,0,1-1.33-1,2.62,2.62,0,0,1-.47-1.54h1.63a1.5,1.5,0,0,0,.52,1.23,2.32,2.32,0,0,0,1.51.44A2,2,0,0,0,66.47,13,1.08,1.08,0,0,0,66.9,12.07Z"/><path class="bf99c226-b042-4ac9-b90d-cb93b496f63b" d="M77,10.31H73.18v2.88h4.49v1.3H71.55V5.12h6.08V6.43H73.18V9H77Z"/><path class="bf99c226-b042-4ac9-b90d-cb93b496f63b" d="M84,10.88H82.22v3.61H80.59V5.12h3.3a3.8,3.8,0,0,1,2.5.73A2.56,2.56,0,0,1,87.27,8a2.68,2.68,0,0,1-.45,1.58,2.91,2.91,0,0,1-1.27,1l2.1,3.9v.09H85.91ZM82.22,9.57h1.67a1.9,1.9,0,0,0,1.29-.41A1.46,1.46,0,0,0,85.64,8a1.51,1.51,0,0,0-.43-1.16,1.78,1.78,0,0,0-1.27-.43H82.22Z"/><path class="bf99c226-b042-4ac9-b90d-cb93b496f63b" d="M93.58,12.45,96,5.12h1.79l-3.37,9.37H92.81L89.45,5.12h1.78Z"/><path class="bf99c226-b042-4ac9-b90d-cb93b496f63b" d="M102.12,14.49H100.5V5.12h1.62Z"/><path class="bf99c226-b042-4ac9-b90d-cb93b496f63b" d="M112.86,11.44a3.34,3.34,0,0,1-1.11,2.34,3.74,3.74,0,0,1-2.56.84,3.57,3.57,0,0,1-2-.54,3.46,3.46,0,0,1-1.32-1.5,5.41,5.41,0,0,1-.48-2.27V9.43a5.36,5.36,0,0,1,.47-2.33,3.45,3.45,0,0,1,1.35-1.56,3.7,3.7,0,0,1,2-.55,3.61,3.61,0,0,1,2.49.84,3.49,3.49,0,0,1,1.1,2.38h-1.62a2.33,2.33,0,0,0-.59-1.46,2.21,2.21,0,0,0-3,.33,3.91,3.91,0,0,0-.58,2.28v.83a4,4,0,0,0,.55,2.31,1.78,1.78,0,0,0,1.59.8,2.08,2.08,0,0,0,1.44-.43,2.27,2.27,0,0,0,.61-1.43Z"/><path class="bf99c226-b042-4ac9-b90d-cb93b496f63b" d="M117.63,14.49H116V5.12h1.62Z"/><path class="bf99c226-b042-4ac9-b90d-cb93b496f63b" d="M128.69,10.05a5.67,5.67,0,0,1-.47,2.41,3.58,3.58,0,0,1-1.36,1.6,4,4,0,0,1-4.07,0,3.63,3.63,0,0,1-1.37-1.59,5.51,5.51,0,0,1-.5-2.37V9.57a5.78,5.78,0,0,1,.49-2.42,3.6,3.6,0,0,1,1.37-1.6,3.75,3.75,0,0,1,2-.56,3.83,3.83,0,0,1,2,.55,3.72,3.72,0,0,1,1.37,1.58,5.66,5.66,0,0,1,.48,2.41Zm-1.62-.49a4.13,4.13,0,0,0-.59-2.39,2.07,2.07,0,0,0-3.32,0,4,4,0,0,0-.61,2.34v.54a4.1,4.1,0,0,0,.6,2.39,1.94,1.94,0,0,0,1.67.84,1.9,1.9,0,0,0,1.66-.83,4.1,4.1,0,0,0,.59-2.4Z"/><path class="bf99c226-b042-4ac9-b90d-cb93b496f63b" d="M136.78,14.49V5.12h2.77a4.41,4.41,0,0,1,2.2.55,3.76,3.76,0,0,1,1.49,1.57,5,5,0,0,1,.53,2.33V10a5,5,0,0,1-.53,2.34,3.67,3.67,0,0,1-1.51,1.56,4.63,4.63,0,0,1-2.25.55Zm1.63-8.06v6.76h1.06a2.46,2.46,0,0,0,2-.8,3.49,3.49,0,0,0,.7-2.3V9.57a3.52,3.52,0,0,0-.67-2.33,2.33,2.33,0,0,0-1.92-.81Z"/><path class="bf99c226-b042-4ac9-b90d-cb93b496f63b" d="M152.46,10.31h-3.85v2.88h4.5v1.3H147V5.12h6.07V6.43h-4.45V9h3.85Z"/><path class="bf99c226-b042-4ac9-b90d-cb93b496f63b" d="M6.34,45.67l9.82-22,9.51,22.08H22.91l-1-2.58-11.69-.07L9.1,45.68Zm4.92-4.93,9.52.06C17.6,33.41,17,32,16.12,30Z"/><path class="bf99c226-b042-4ac9-b90d-cb93b496f63b" d="M37.24,45.78l9.68-22,9.65,22H53.82l-1.07-2.57H41.07L40,45.78Zm4.89-5h9.53C48.43,33.45,47.8,32.1,46.92,30Z"/><path class="bf99c226-b042-4ac9-b90d-cb93b496f63b" d="M37.18,27.44H32.76V45.78H30.32V27.44H25.9V25.08H37.18Z"/><path class="bf99c226-b042-4ac9-b90d-cb93b496f63b" d="M71.74,45.78l-5.23-8.73h-4v8.73H60V34.63H65.1l-6-10H67a11.26,11.26,0,0,1,3.47.73,5.85,5.85,0,0,1,3.73,5.47,6,6,0,0,1-3.73,5.47,7.23,7.23,0,0,1-1.19.48c1.13,1.87,2.32,3.84,3.42,5.71.56.94,1.44,2.39,2,3.29ZM67.88,34.54a12.11,12.11,0,0,0,1.63-.45,3.37,3.37,0,0,0,2.2-3.26,3.84,3.84,0,0,0-2.23-3.27,10.57,10.57,0,0,0-2.5-.51H63.44Z"/><path class="bf99c226-b042-4ac9-b90d-cb93b496f63b" d="M76.71,45.67l9.83-22L96,45.78H93.29l-1.05-2.58-11.69-.07-1.08,2.56Zm4.92-4.93,9.53.06C88,33.41,87.36,32,86.5,30Z"/><path class="bf99c226-b042-4ac9-b90d-cb93b496f63b" d="M104.11,35.21,97.35,24.63h2.85L105.56,33l5.35-8.34h2.89L107,35.21l6.8,10.57h-2.89l-5.35-8.31c-1.7,2.66-3.7,5.68-5.36,8.31H97.35Z"/><path class="bf99c226-b042-4ac9-b90d-cb93b496f63b" d="M120.91,45.78h-2.48V25.08h2.48Z"/><path class="bf99c226-b042-4ac9-b90d-cb93b496f63b" d="M123.47,45.78l9.68-22,9.65,22H140L139,43.21H127.29l-1.07,2.57Zm4.88-5h9.53C134.65,33.45,134,32.1,133.15,30Z"/><path class="bf99c226-b042-4ac9-b90d-cb93b496f63b" d="M155.76,27.33h-9.14V25h12.44L151.9,45.78h-2.53Z"/><path class="bf99c226-b042-4ac9-b90d-cb93b496f63b" d="M172.46,45.78H160.67l.37-1.49c.09-.26,2.28-7.08,6.17-10.44,2.13-1.73,2.5-3,2.5-3.4a3,3,0,0,0-2.93-3.12,3.16,3.16,0,0,0-2.9,3.36h-2.47A5.57,5.57,0,0,1,166.78,25a5.41,5.41,0,0,1,5.4,5.5c0,.9-.43,2.8-3.43,5.24a16.15,16.15,0,0,0-3.92,5.57,15.34,15.34,0,0,0-.89,2.14h8.52Z"/><path class="bf99c226-b042-4ac9-b90d-cb93b496f63b" d="M177.36,42.63a7.41,7.41,0,0,1-.77-3V31.05a7.41,7.41,0,0,1,.77-2.95,6,6,0,0,1,10.56,0,7.68,7.68,0,0,1,.74,2.95v8.63a7.68,7.68,0,0,1-.74,3,6,6,0,0,1-10.56,0Zm2.23-13.58a5.36,5.36,0,0,0-.5,2v8.63a6.08,6.08,0,0,0,.5,2,3.2,3.2,0,0,0,3,1.69,3.26,3.26,0,0,0,3.06-1.69,5.57,5.57,0,0,0,.49-2V31.05a4.57,4.57,0,0,0-.49-2,3.23,3.23,0,0,0-3.06-1.72A3.17,3.17,0,0,0,179.59,29.05Z"/></g></svg>