<svg xmlns="http://www.w3.org/2000/svg" viewBox="0 0 609 230"><defs><style>.a654d739-6ca1-4333-a435-ec8604cdc6e4{fill:#fff;}</style></defs><title>sireco login (1)</title><g id="a69d79f8-ca85-4d19-bd0a-46683ecefe10" data-name="hover"><path class="a654d739-6ca1-4333-a435-ec8604cdc6e4" d="M202.61,153.81l10.48-12.52c6.7,5.34,14.18,8.15,22,8.15,5.05,0,7.77-1.74,7.77-4.66v-.19c0-2.82-2.24-4.37-11.46-6.51-14.47-3.3-25.64-7.38-25.64-21.36v-.19c0-12.63,10-21.76,26.32-21.76,11.55,0,20.58,3.11,28,9l-9.42,13.31c-6.21-4.37-13-6.7-19-6.7-4.56,0-6.8,1.94-6.8,4.37V115c0,3.11,2.33,4.47,11.75,6.61,15.64,3.39,25.35,8.44,25.35,21.16v.2c0,13.88-11,22.14-27.48,22.14C222.42,165.08,211,161.29,202.61,153.81Z"/><path class="a654d739-6ca1-4333-a435-ec8604cdc6e4" d="M271.45,95.94h18.93v68H271.45Z"/><path class="a654d739-6ca1-4333-a435-ec8604cdc6e4" d="M302.81,95.94H335c10.39,0,17.57,2.72,22.14,7.38,4,3.88,6,9.13,6,15.83v.19c0,10.39-5.54,17.29-14,20.88l16.22,23.69H343.6l-13.69-20.58h-8.26v20.58H302.81Zm31.27,32.63c6.41,0,10.1-3.11,10.1-8.06v-.2c0-5.34-3.88-8.06-10.2-8.06H321.65v16.32Z"/><path class="a654d739-6ca1-4333-a435-ec8604cdc6e4" d="M372.63,95.94H427.3v16h-36v10.29H423.9v14.86H391.27v10.78h36.51v16H372.63Z"/><path class="a654d739-6ca1-4333-a435-ec8604cdc6e4" d="M434.58,130.12v-.19c0-19.81,15.24-35.35,35.83-35.35,13.89,0,22.82,5.83,28.84,14.18l-14.18,11c-3.88-4.86-8.35-8-14.85-8-9.52,0-16.22,8.06-16.22,18v.2c0,10.19,6.7,18.15,16.22,18.15,7.08,0,11.26-3.3,15.34-8.25l14.18,10.1c-6.41,8.84-15.06,15.34-30.11,15.34C450.21,165.27,434.58,150.42,434.58,130.12Z"/><path class="a654d739-6ca1-4333-a435-ec8604cdc6e4" d="M503.52,130.12v-.19c0-19.52,15.73-35.35,36.71-35.35s36.51,15.63,36.51,35.15v.2c0,19.51-15.73,35.34-36.71,35.34S503.52,149.64,503.52,130.12Zm54,0v-.19c0-9.81-7.09-18.36-17.48-18.36s-17.19,8.35-17.19,18.16v.2c0,9.8,7.09,18.35,17.39,18.35S557.51,139.93,557.51,130.12Z"/><path class="a654d739-6ca1-4333-a435-ec8604cdc6e4" d="M108,16.9h7.36c.64.11,1.28.25,1.92.33,3.21.4,6.44.65,9.62,1.19,13,2.21,22.52,10.16,31,19.6A2.77,2.77,0,0,1,157.8,42c-.94,1.09-1.92,2.15-2.91,3.24,14.88,10.38,22.86,24.71,24,42.61s-4.78,33.21-17.63,45.41c2.19.66,4.51,1,6.47,2,5.81,3,6.76,10.93,1.47,14.54-2.77,1.9-3.21,3.89-3,6.68.08.94,0,1.89,0,2.84,0,3-.84,3.85-3.89,3.85q-25.93,0-51.86,0c-1.62,0-3.05.16-4.17,1.42H48.43a3.6,3.6,0,0,1-2-4.11c.36-2.61.69-5.23,1-7.71a35.65,35.65,0,0,1-4.48-1.35c-3.14-1.37-4.72-4-5.53-7.25v-2.34a11.36,11.36,0,0,1,4.38-6.45c.29-.2.34-.9.34-1.37q0-6.18,0-12.37c0-7.92-.13-15.84-.16-23.75,0-5.24-.31-10.52.15-15.72a76.69,76.69,0,0,1,7.75-26.82C60.12,34,76.82,21.2,100.44,17.83,103,17.47,105.49,17.21,108,16.9ZM152,40a3.28,3.28,0,0,0-.24-.42c-.86-.87-1.72-1.75-2.59-2.61-6.4-6.3-13.59-11.19-22.59-12.92a76,76,0,0,0-27.44-.36,58.4,58.4,0,0,0-23.47,9.19C65.07,40.11,57.89,50,53.12,61.73,49.39,70.89,47,80.32,47.46,90.34c.2,4.12.11,8.26.13,12.38q.07,14.57.12,29.12c0,.58.08,1.17.13,1.83,5.44,0,10.68,0,15.91,0a5.25,5.25,0,0,0,1.75-.48,31.61,31.61,0,0,1,23.5-.1,8.71,8.71,0,0,0,3.07.58c17.62,0,35.26-.2,52.88.16a16.07,16.07,0,0,0,12.87-5.17c.85-.89,1.76-1.72,2.59-2.62,16-17.39,17.49-45.21,3.49-64.43a44.81,44.81,0,0,0-13-12.07L124.84,78.16a24.58,24.58,0,0,1,.76,35.56l11.33,12c.23.24.47.48.68.73,1.32,1.51,1.37,3.18.14,4.31s-2.92,1-4.28-.48c-3.6-3.81-7.24-7.59-10.74-11.48-1.13-1.25-1.91-1.64-3.57-.73a22.06,22.06,0,0,1-13.94,2.42C87.08,118,78,98.88,87.47,83.23a1.42,1.42,0,0,0-.27-2.11c-1.69-1.7-3.3-3.48-4.92-5.24a2.77,2.77,0,0,1-.42-3.4,2.47,2.47,0,0,1,3-1.28,5.12,5.12,0,0,1,2,1.37c1.71,1.73,3.35,3.54,5,5.32,8.88-6.9,18.28-7.88,28.33-3ZM127.24,96.23a19,19,0,0,0-38,.39c0,10.1,8.74,18.58,19,18.51A19,19,0,0,0,127.24,96.23Zm-75,62.52h50.27c-.9-11.9-12.12-22.15-24.32-22.28C64.75,136.32,53.48,145.94,52.2,158.75Zm46.94-19.5c1.8,2.47,3.49,4.67,5,7a2.21,2.21,0,0,0,2.12,1.19c17.61,0,35.22,0,52.83-.06a17.49,17.49,0,0,0,5.19-1,3.36,3.36,0,0,0,0-6.57,10.41,10.41,0,0,0-3.43-.51q-30,0-60,0Zm61.39,18.17c0-.34.08-.5.08-.67,0-1,0-2,0-3,0-2.2,0-2.22-2.26-2.22H106.78l1.41,5.9ZM49.6,147.31l5.89-7.92c-3,0-5.91-.13-8.83.05a3.86,3.86,0,0,0-3.57,3.6c0,1.72,1.64,3.38,3.7,3.73C47.75,146.93,48.7,147.14,49.6,147.31Z"/><path class="a654d739-6ca1-4333-a435-ec8604cdc6e4" d="M167.83,90.08c-.36.37-.8,1.21-1.38,1.32-1.12.23-1.43-.68-1.55-1.68a51.23,51.23,0,0,0-5-17.89c-2.5-4.77-5.73-8.87-10.74-11.31a2.12,2.12,0,0,1-.84-1.82,1.22,1.22,0,0,1,2-.62c2.36,1.65,4.92,3.13,6.89,5.17,5.25,5.39,7.8,12.22,9.37,19.44C167.06,85,167.36,87.3,167.83,90.08Z"/><path class="a654d739-6ca1-4333-a435-ec8604cdc6e4" d="M56.06,202.51a6.6,6.6,0,0,1-1.75,2.21,8.34,8.34,0,0,1-2.66,1.42,10.84,10.84,0,0,1-3.41.51,14.29,14.29,0,0,1-5.52-1A17.14,17.14,0,0,1,38,202.57l1.24-1.43a18,18,0,0,0,2.1,1.7,11.48,11.48,0,0,0,4.43,1.86,13.42,13.42,0,0,0,2.62.24,8.48,8.48,0,0,0,2.63-.39,6.14,6.14,0,0,0,2-1.05,5,5,0,0,0,1.31-1.61,4.32,4.32,0,0,0,.47-2v-.07a5.24,5.24,0,0,0-.3-1.83,3.64,3.64,0,0,0-1.13-1.46,8.53,8.53,0,0,0-2.21-1.18,23.81,23.81,0,0,0-3.57-1,23.71,23.71,0,0,1-3.94-1.11A9.65,9.65,0,0,1,41,191.76a5.13,5.13,0,0,1-1.51-2,6.54,6.54,0,0,1-.48-2.59v-.07a5.77,5.77,0,0,1,.62-2.64,6.8,6.8,0,0,1,1.72-2.14,8.19,8.19,0,0,1,2.59-1.42,10.07,10.07,0,0,1,3.28-.51,13.55,13.55,0,0,1,4.79.77,14.32,14.32,0,0,1,4,2.33l-1.2,1.5a10.86,10.86,0,0,0-7.62-2.88,8,8,0,0,0-2.57.38,6.1,6.1,0,0,0-2,1,4.57,4.57,0,0,0-1.26,1.53,4.11,4.11,0,0,0-.44,1.86V187a5.11,5.11,0,0,0,.31,1.84,3.6,3.6,0,0,0,1.13,1.5,8.27,8.27,0,0,0,2.28,1.22,27.11,27.11,0,0,0,3.72,1c3,.61,5.1,1.46,6.41,2.57a5.53,5.53,0,0,1,2,4.46v.08A6.21,6.21,0,0,1,56.06,202.51Z"/><path class="a654d739-6ca1-4333-a435-ec8604cdc6e4" d="M62.57,182.85V180.4h2.22v2.45Zm.22,23.43V187.69h1.78v18.59Z"/><path class="a654d739-6ca1-4333-a435-ec8604cdc6e4" d="M83.55,203.47a5.26,5.26,0,0,1-1.37,1.71,6.43,6.43,0,0,1-2,1.09,8.21,8.21,0,0,1-2.52.38,11.56,11.56,0,0,1-4.08-.77,12.34,12.34,0,0,1-3.54-2l1.06-1.42a12.85,12.85,0,0,0,3.21,1.81,9.77,9.77,0,0,0,3.46.64,5.25,5.25,0,0,0,3.19-.95,3,3,0,0,0,1.3-2.58v-.08a2.44,2.44,0,0,0-.4-1.38,3.74,3.74,0,0,0-1.1-1,6.87,6.87,0,0,0-1.57-.72c-.58-.2-1.2-.39-1.86-.59s-1.51-.45-2.27-.69A8.65,8.65,0,0,1,73,196a4.73,4.73,0,0,1-1.48-1.4,3.55,3.55,0,0,1-.56-2.07v-.07a4.68,4.68,0,0,1,.45-2.06,5.07,5.07,0,0,1,1.26-1.62,5.81,5.81,0,0,1,1.93-1.07,7.82,7.82,0,0,1,2.48-.38,11.4,11.4,0,0,1,3.44.56,11.71,11.71,0,0,1,3.16,1.52l-1,1.49a12.33,12.33,0,0,0-2.75-1.35,9.09,9.09,0,0,0-3-.51,4.74,4.74,0,0,0-3.08.93,2.85,2.85,0,0,0-1.15,2.31v.07a2.07,2.07,0,0,0,.44,1.33,3.6,3.6,0,0,0,1.14,1,8.81,8.81,0,0,0,1.66.71c.63.21,1.28.41,1.94.6s1.49.46,2.22.71a8.65,8.65,0,0,1,2,1,4.88,4.88,0,0,1,1.4,1.43,3.85,3.85,0,0,1,.53,2.08v.07A5,5,0,0,1,83.55,203.47Z"/><path class="a654d739-6ca1-4333-a435-ec8604cdc6e4" d="M97.14,206.45a7.55,7.55,0,0,1-3.62-.13,4.28,4.28,0,0,1-2.77-2.53,5.91,5.91,0,0,1-.41-2.28V189.33H87.65v-1.64h2.69v-5.94h1.79v5.94h6.53v1.64H92.13v12a3.34,3.34,0,0,0,1,2.8,4.29,4.29,0,0,0,2.68.8,6.12,6.12,0,0,0,1.31-.14,7.92,7.92,0,0,0,1.42-.48V206A8.16,8.16,0,0,1,97.14,206.45Z"/><path class="a654d739-6ca1-4333-a435-ec8604cdc6e4" d="M104.78,200.8a8,8,0,0,0,1.65,2.29,6.86,6.86,0,0,0,2.24,1.43,7.2,7.2,0,0,0,2.65.49,7.54,7.54,0,0,0,3.71-.84,10.94,10.94,0,0,0,2.69-2.08l1.24,1.1a13.14,13.14,0,0,1-3.23,2.53,9.13,9.13,0,0,1-4.48,1,9,9,0,0,1-3.49-.69,8.81,8.81,0,0,1-2.92-2,9.36,9.36,0,0,1-2-3.06,10.37,10.37,0,0,1-.73-4V197a10.5,10.5,0,0,1,.67-3.77,9.64,9.64,0,0,1,1.86-3.08,8.79,8.79,0,0,1,2.79-2.08,8,8,0,0,1,3.5-.76,8.27,8.27,0,0,1,3.54.74,8,8,0,0,1,2.67,2.06,9.26,9.26,0,0,1,1.72,3.08,11.91,11.91,0,0,1,.6,3.85v.4a1.77,1.77,0,0,1,0,.33H104A8.17,8.17,0,0,0,104.78,200.8Zm12.79-4.69a10.62,10.62,0,0,0-.56-2.71,7.7,7.7,0,0,0-1.28-2.3,6.14,6.14,0,0,0-2-1.6,6.71,6.71,0,0,0-5.41-.06,6.57,6.57,0,0,0-2.1,1.52,8.13,8.13,0,0,0-1.48,2.29,8.76,8.76,0,0,0-.7,2.86Z"/><path class="a654d739-6ca1-4333-a435-ec8604cdc6e4" d="M151,206.28v-11a6.9,6.9,0,0,0-1.46-4.69,5.11,5.11,0,0,0-4-1.65,6,6,0,0,0-2.25.43,5.47,5.47,0,0,0-1.87,1.28,6.1,6.1,0,0,0-1.28,2.06,7.77,7.77,0,0,0-.47,2.79v10.82h-1.79V195.13a6.73,6.73,0,0,0-1.46-4.58,5,5,0,0,0-4-1.65,5.43,5.43,0,0,0-2.33.51,5.74,5.74,0,0,0-1.9,1.42,7.08,7.08,0,0,0-1.26,2.11,7.45,7.45,0,0,0-.45,2.63v10.71h-1.79V187.69h1.79V191a10.24,10.24,0,0,1,1-1.4,7.8,7.8,0,0,1,1.29-1.21,6,6,0,0,1,1.7-.83,7.11,7.11,0,0,1,2.21-.31,7.31,7.31,0,0,1,2.2.32,6.36,6.36,0,0,1,3.1,2.15,9.19,9.19,0,0,1,1,1.54,11.11,11.11,0,0,1,1.06-1.5,7.14,7.14,0,0,1,1.44-1.29,7,7,0,0,1,1.86-.9,8.09,8.09,0,0,1,2.35-.32,7.42,7.42,0,0,1,3,.56,6.51,6.51,0,0,1,2.26,1.57,6.63,6.63,0,0,1,1.42,2.44,9.75,9.75,0,0,1,.5,3.19v11.26Z"/><path class="a654d739-6ca1-4333-a435-ec8604cdc6e4" d="M172.11,206.28v-3.09a10.26,10.26,0,0,1-1.15,1.29,8.24,8.24,0,0,1-1.55,1.13,8.71,8.71,0,0,1-2,.8,8.86,8.86,0,0,1-2.42.31,9.47,9.47,0,0,1-2.59-.36,7.53,7.53,0,0,1-2.3-1.1,5.79,5.79,0,0,1-1.66-1.82,5,5,0,0,1-.63-2.55v-.07a5.41,5.41,0,0,1,.6-2.59,5.49,5.49,0,0,1,1.66-1.9,7.49,7.49,0,0,1,2.55-1.16,12.62,12.62,0,0,1,3.31-.4,23.43,23.43,0,0,1,3.39.21,24.9,24.9,0,0,1,2.78.59v-.8a5.32,5.32,0,0,0-1.63-4.24,6.63,6.63,0,0,0-4.5-1.42,11,11,0,0,0-3.13.42,15.21,15.21,0,0,0-2.7,1.08l-.66-1.57a19,19,0,0,1,3.1-1.19,12.69,12.69,0,0,1,3.5-.45,8.36,8.36,0,0,1,5.69,1.82,6.91,6.91,0,0,1,2.07,5.47v11.59Zm0-9.08c-.78-.19-1.69-.38-2.73-.56a21.31,21.31,0,0,0-3.58-.27,7.45,7.45,0,0,0-4.53,1.18,3.72,3.72,0,0,0-1.59,3.14v.07a3.64,3.64,0,0,0,.44,1.8,4,4,0,0,0,1.18,1.32,5.63,5.63,0,0,0,1.74.84,7.24,7.24,0,0,0,2,.29,8.56,8.56,0,0,0,2.69-.42,7.49,7.49,0,0,0,2.25-1.16,5.74,5.74,0,0,0,1.53-1.8,4.88,4.88,0,0,0,.56-2.32Z"/><path class="a654d739-6ca1-4333-a435-ec8604cdc6e4" d="M206.7,206.28v-4.15a17.57,17.57,0,0,1-1.37,1.75,8.55,8.55,0,0,1-3.75,2.46,8.16,8.16,0,0,1-2.54.38,9,9,0,0,1-6.19-2.55,9.43,9.43,0,0,1-2.06-3,10,10,0,0,1-.79-4.07V197a10,10,0,0,1,.79-4.07,9.64,9.64,0,0,1,2.06-3.06,9,9,0,0,1,2.89-1.93,8.77,8.77,0,0,1,5.85-.31,8.11,8.11,0,0,1,2.1,1,9.62,9.62,0,0,1,1.68,1.43,13.91,13.91,0,0,1,1.33,1.67v-12h1.78v26.61Zm.11-9.33a8,8,0,0,0-2.34-5.78,8,8,0,0,0-2.43-1.62,7.17,7.17,0,0,0-2.83-.58,7.37,7.37,0,0,0-2.87.55,6.6,6.6,0,0,0-2.32,1.56,7.37,7.37,0,0,0-1.56,2.5,9.43,9.43,0,0,0-.56,3.34V197a9.08,9.08,0,0,0,.58,3.32,7.57,7.57,0,0,0,1.59,2.53,7,7,0,0,0,2.34,1.6,7,7,0,0,0,2.8.57,7.18,7.18,0,0,0,2.83-.59,7.51,7.51,0,0,0,2.43-1.64,8.24,8.24,0,0,0,1.7-2.51,8.09,8.09,0,0,0,.64-3.25Z"/><path class="a654d739-6ca1-4333-a435-ec8604cdc6e4" d="M216.65,200.8a8.12,8.12,0,0,0,1.64,2.29,7,7,0,0,0,2.25,1.43,7.2,7.2,0,0,0,2.65.49,7.56,7.56,0,0,0,3.71-.84,10.94,10.94,0,0,0,2.69-2.08l1.24,1.1a13.14,13.14,0,0,1-3.23,2.53,9.13,9.13,0,0,1-4.48,1,9,9,0,0,1-3.49-.69,8.81,8.81,0,0,1-2.92-2,9.36,9.36,0,0,1-2-3.06,10.37,10.37,0,0,1-.73-4V197a10.5,10.5,0,0,1,.67-3.77,9.64,9.64,0,0,1,1.86-3.08,8.79,8.79,0,0,1,2.79-2.08,8,8,0,0,1,3.5-.76,8.2,8.2,0,0,1,3.53.74,8,8,0,0,1,2.68,2.06,9.44,9.44,0,0,1,1.72,3.08,11.91,11.91,0,0,1,.6,3.85v.4a1.77,1.77,0,0,1,0,.33H215.88A8.17,8.17,0,0,0,216.65,200.8Zm12.79-4.69a10.62,10.62,0,0,0-.56-2.71,7.93,7.93,0,0,0-1.28-2.3,6.14,6.14,0,0,0-2-1.6,6.71,6.71,0,0,0-5.41-.06,6.36,6.36,0,0,0-2.1,1.52,8.13,8.13,0,0,0-1.48,2.29,8.76,8.76,0,0,0-.7,2.86Z"/><path class="a654d739-6ca1-4333-a435-ec8604cdc6e4" d="M266.26,206.28l-8.13-10.57h-8.35v10.57h-1.89V180.77H258.6a12.25,12.25,0,0,1,3.76.53,8.53,8.53,0,0,1,2.86,1.49,6.81,6.81,0,0,1,1.84,2.3,6.47,6.47,0,0,1,.66,2.93v.07a6.9,6.9,0,0,1-.57,2.87,6.5,6.5,0,0,1-1.57,2.16,7.88,7.88,0,0,1-2.37,1.48,11.57,11.57,0,0,1-3,.78l8.42,10.9Zm-.44-18.2a4.94,4.94,0,0,0-1.91-4.1,8.61,8.61,0,0,0-5.42-1.5h-8.71V194h8.6a10.53,10.53,0,0,0,3-.4,7.26,7.26,0,0,0,2.35-1.15,5.57,5.57,0,0,0,1.55-1.83,5.32,5.32,0,0,0,.56-2.47Z"/><path class="a654d739-6ca1-4333-a435-ec8604cdc6e4" d="M274.86,200.8a8,8,0,0,0,1.65,2.29,7,7,0,0,0,2.25,1.43,7.17,7.17,0,0,0,2.65.49,7.59,7.59,0,0,0,3.71-.84,10.89,10.89,0,0,0,2.68-2.08l1.24,1.1a13,13,0,0,1-3.23,2.53,9.9,9.9,0,0,1-8,.31,8.91,8.91,0,0,1-2.92-2,9.36,9.36,0,0,1-2-3.06,10.37,10.37,0,0,1-.73-4V197a10.5,10.5,0,0,1,.67-3.77,9.64,9.64,0,0,1,1.86-3.08,8.79,8.79,0,0,1,2.79-2.08,8,8,0,0,1,3.5-.76,8.27,8.27,0,0,1,3.54.74,8.09,8.09,0,0,1,2.68,2.06,9.42,9.42,0,0,1,1.71,3.08,11.91,11.91,0,0,1,.6,3.85v.4a1.77,1.77,0,0,1,0,.33H274.1A8,8,0,0,0,274.86,200.8Zm12.8-4.69a11.07,11.07,0,0,0-.57-2.71,7.7,7.7,0,0,0-1.28-2.3,6.14,6.14,0,0,0-2-1.6,6.22,6.22,0,0,0-2.81-.6,6.31,6.31,0,0,0-2.6.54,6.57,6.57,0,0,0-2.1,1.52,8.13,8.13,0,0,0-1.48,2.29,8.51,8.51,0,0,0-.69,2.86Z"/><path class="a654d739-6ca1-4333-a435-ec8604cdc6e4" d="M311.37,207.16a7.61,7.61,0,0,1-1.9,2.75,8.43,8.43,0,0,1-2.91,1.7,11.31,11.31,0,0,1-3.65.58,13.91,13.91,0,0,1-8.55-2.88l1.06-1.46a12,12,0,0,0,7.53,2.63,9.16,9.16,0,0,0,2.94-.46,6.31,6.31,0,0,0,2.3-1.35,6.39,6.39,0,0,0,1.52-2.25,8.34,8.34,0,0,0,.54-3.13V200.6a12.62,12.62,0,0,1-1.38,1.64,9.93,9.93,0,0,1-1.71,1.36,8.16,8.16,0,0,1-2.12,1,9,9,0,0,1-2.55.35,9.09,9.09,0,0,1-3.28-.62,8.91,8.91,0,0,1-2.86-1.77,8.72,8.72,0,0,1-2-2.75,8.28,8.28,0,0,1-.77-3.61v-.07a8.55,8.55,0,0,1,.77-3.65,8.78,8.78,0,0,1,2-2.79,9.06,9.06,0,0,1,2.86-1.76,8.88,8.88,0,0,1,3.28-.62,9.18,9.18,0,0,1,2.57.34,9.36,9.36,0,0,1,2.13.91,9,9,0,0,1,1.72,1.33,12.71,12.71,0,0,1,1.34,1.57v-3.72H312V203.4A9.85,9.85,0,0,1,311.37,207.16Zm-1-11.12a6.42,6.42,0,0,0-.65-2.92,7.23,7.23,0,0,0-1.74-2.24,7.66,7.66,0,0,0-2.47-1.42,8.37,8.37,0,0,0-2.85-.49,7.77,7.77,0,0,0-2.77.49,7,7,0,0,0-2.3,1.4,6.61,6.61,0,0,0-1.56,2.21,7.19,7.19,0,0,0-.56,2.93v.08A7,7,0,0,0,296,199a6.91,6.91,0,0,0,1.57,2.24,7.51,7.51,0,0,0,2.3,1.46,7.34,7.34,0,0,0,2.74.53,8,8,0,0,0,2.85-.52,8.07,8.07,0,0,0,2.47-1.43,7.31,7.31,0,0,0,1.74-2.23,6.28,6.28,0,0,0,.65-2.9Z"/><path class="a654d739-6ca1-4333-a435-ec8604cdc6e4" d="M318.86,182.85V180.4h2.22v2.45Zm.22,23.43V187.69h1.78v18.59Z"/><path class="a654d739-6ca1-4333-a435-ec8604cdc6e4" d="M339.83,203.47a5.1,5.1,0,0,1-1.36,1.71,6.65,6.65,0,0,1-2,1.09,8.21,8.21,0,0,1-2.52.38,11.56,11.56,0,0,1-4.08-.77,12.34,12.34,0,0,1-3.54-2l1.06-1.42a12.85,12.85,0,0,0,3.21,1.81,9.73,9.73,0,0,0,3.46.64,5.27,5.27,0,0,0,3.19-.95,3,3,0,0,0,1.29-2.58v-.08a2.36,2.36,0,0,0-.4-1.38,3.58,3.58,0,0,0-1.09-1,6.87,6.87,0,0,0-1.57-.72c-.58-.2-1.2-.39-1.86-.59s-1.51-.45-2.28-.69a8.75,8.75,0,0,1-2.05-.93,4.73,4.73,0,0,1-1.48-1.4,3.56,3.56,0,0,1-.57-2.07v-.07a4.68,4.68,0,0,1,.46-2.06,4.93,4.93,0,0,1,1.26-1.62,5.81,5.81,0,0,1,1.93-1.07,7.82,7.82,0,0,1,2.48-.38,11.45,11.45,0,0,1,3.44.56,11.71,11.71,0,0,1,3.16,1.52L339,190.9a12.33,12.33,0,0,0-2.75-1.35,9.11,9.11,0,0,0-3-.51,4.77,4.77,0,0,0-3.08.93,2.87,2.87,0,0,0-1.14,2.31v.07a2.12,2.12,0,0,0,.43,1.33,3.76,3.76,0,0,0,1.15,1,8.81,8.81,0,0,0,1.66.71c.63.21,1.28.41,1.93.6s1.5.46,2.23.71a8.38,8.38,0,0,1,2,1,4.8,4.8,0,0,1,1.41,1.43,3.85,3.85,0,0,1,.53,2.08v.07A5,5,0,0,1,339.83,203.47Z"/><path class="a654d739-6ca1-4333-a435-ec8604cdc6e4" d="M353.43,206.45a7,7,0,0,1-1.58.16,7.15,7.15,0,0,1-2.05-.29,4.21,4.21,0,0,1-1.65-.93,4.32,4.32,0,0,1-1.12-1.6,6.11,6.11,0,0,1-.4-2.28V189.33h-2.69v-1.64h2.69v-5.94h1.79v5.94h6.52v1.64h-6.52v12a3.34,3.34,0,0,0,1,2.8,4.27,4.27,0,0,0,2.68.8,6.12,6.12,0,0,0,1.31-.14,7.92,7.92,0,0,0,1.42-.48V206A8.45,8.45,0,0,1,353.43,206.45Z"/><path class="a654d739-6ca1-4333-a435-ec8604cdc6e4" d="M370.07,189.37a8,8,0,0,0-3.06.6,7.33,7.33,0,0,0-2.57,1.79,8.8,8.8,0,0,0-1.77,2.91,11.23,11.23,0,0,0-.65,4v7.61h-1.79V187.69H362V193a10.33,10.33,0,0,1,1.38-2.3,9.24,9.24,0,0,1,1.9-1.8,7.76,7.76,0,0,1,2.31-1.13,8.26,8.26,0,0,1,2.64-.35v2Z"/><path class="a654d739-6ca1-4333-a435-ec8604cdc6e4" d="M391,200.71a9.6,9.6,0,0,1-5.05,5.23,9.25,9.25,0,0,1-3.82.78,9.14,9.14,0,0,1-3.81-.78,9.59,9.59,0,0,1-3-2.1,9.46,9.46,0,0,1-2-3.06,9.89,9.89,0,0,1-.71-3.72V197a9.74,9.74,0,0,1,2.72-6.82,9.59,9.59,0,0,1,3-2.13,9.3,9.3,0,0,1,3.83-.78A9.21,9.21,0,0,1,386,188a9.7,9.7,0,0,1,3,2.1,9.28,9.28,0,0,1,2,3.06,9.63,9.63,0,0,1,.71,3.72V197A9.7,9.7,0,0,1,391,200.71ZM389.83,197a8.43,8.43,0,0,0-.59-3.14,7.83,7.83,0,0,0-1.63-2.56,7.54,7.54,0,0,0-2.45-1.7,7.32,7.32,0,0,0-3-.62,7.41,7.41,0,0,0-3.06.63,7.68,7.68,0,0,0-2.42,1.71,7.57,7.57,0,0,0-1.57,2.52,8.39,8.39,0,0,0-.57,3.09V197a8.42,8.42,0,0,0,.58,3.14,8.17,8.17,0,0,0,1.63,2.56,7.69,7.69,0,0,0,2.46,1.7,7.49,7.49,0,0,0,3,.62,7.26,7.26,0,0,0,3.06-.64,7.61,7.61,0,0,0,2.42-1.7,8,8,0,0,0,1.57-2.52,8.39,8.39,0,0,0,.57-3.09Z"/><path class="a654d739-6ca1-4333-a435-ec8604cdc6e4" d="M423.66,206.28v-4.15a17.57,17.57,0,0,1-1.37,1.75,8.51,8.51,0,0,1-3.76,2.46,8.09,8.09,0,0,1-2.53.38,9,9,0,0,1-6.2-2.55,9.6,9.6,0,0,1-2.06-3,10.19,10.19,0,0,1-.78-4.07V197a10.19,10.19,0,0,1,.78-4.07,9.8,9.8,0,0,1,2.06-3.06,9,9,0,0,1,2.9-1.93,8.5,8.5,0,0,1,3.3-.67,8.64,8.64,0,0,1,2.55.36,8.11,8.11,0,0,1,2.1,1,9.62,9.62,0,0,1,1.68,1.43,13.91,13.91,0,0,1,1.33,1.67v-12h1.78v26.61Zm.1-9.33a8,8,0,0,0-2.33-5.78,8,8,0,0,0-2.43-1.62,7.18,7.18,0,0,0-2.84-.58,7.32,7.32,0,0,0-2.86.55,6.6,6.6,0,0,0-2.32,1.56,7.37,7.37,0,0,0-1.56,2.5,9.21,9.21,0,0,0-.56,3.34V197a9.08,9.08,0,0,0,.58,3.32,7.57,7.57,0,0,0,1.59,2.53,7.18,7.18,0,0,0,5.13,2.17,7.19,7.19,0,0,0,2.84-.59,7.51,7.51,0,0,0,2.43-1.64,8.24,8.24,0,0,0,1.7-2.51,8.09,8.09,0,0,0,.63-3.25Z"/><path class="a654d739-6ca1-4333-a435-ec8604cdc6e4" d="M433.61,200.8a7.93,7.93,0,0,0,1.64,2.29,7,7,0,0,0,2.25,1.43,7.17,7.17,0,0,0,2.65.49,7.56,7.56,0,0,0,3.71-.84,10.94,10.94,0,0,0,2.69-2.08l1.24,1.1a13,13,0,0,1-3.24,2.53,9.87,9.87,0,0,1-8,.31,8.81,8.81,0,0,1-2.92-2,9.21,9.21,0,0,1-2-3.06,10.37,10.37,0,0,1-.73-4V197a10.5,10.5,0,0,1,.67-3.77,9.64,9.64,0,0,1,1.86-3.08,8.79,8.79,0,0,1,2.79-2.08,8,8,0,0,1,3.5-.76,8.2,8.2,0,0,1,3.53.74,8,8,0,0,1,2.68,2.06,9.42,9.42,0,0,1,1.71,3.08,11.64,11.64,0,0,1,.61,3.85v.4c0,.07,0,.18,0,.33H432.84A8,8,0,0,0,433.61,200.8Zm12.79-4.69a10.22,10.22,0,0,0-.57-2.71,7.49,7.49,0,0,0-1.28-2.3,6,6,0,0,0-2-1.6,6.71,6.71,0,0,0-5.41-.06A6.36,6.36,0,0,0,435,191a7.92,7.92,0,0,0-1.48,2.29,8.52,8.52,0,0,0-.7,2.86Z"/><path class="a654d739-6ca1-4333-a435-ec8604cdc6e4" d="M484.44,204.08a13.45,13.45,0,0,1-2.3,1.4,12.63,12.63,0,0,1-2.64.91,13.71,13.71,0,0,1-3.1.33,12.39,12.39,0,0,1-11.74-8,14,14,0,0,1-1-5.14v-.07a13.7,13.7,0,0,1,1-5.11,13.39,13.39,0,0,1,2.66-4.21,12.37,12.37,0,0,1,9.13-3.88,15.42,15.42,0,0,1,3.1.29,12.69,12.69,0,0,1,2.57.84,13.54,13.54,0,0,1,2.22,1.29,22.33,22.33,0,0,1,2,1.66L485,185.8a20.68,20.68,0,0,0-1.75-1.5,11.37,11.37,0,0,0-2-1.18,11.8,11.8,0,0,0-2.26-.79,11.67,11.67,0,0,0-2.64-.29,10.39,10.39,0,0,0-7.68,3.3A11.53,11.53,0,0,0,466.5,189a12.22,12.22,0,0,0-.82,4.48v.08a12,12,0,0,0,.84,4.5,11.58,11.58,0,0,0,2.28,3.64,10.39,10.39,0,0,0,3.41,2.44,10.11,10.11,0,0,0,4.26.9,10.63,10.63,0,0,0,4.81-1,15.33,15.33,0,0,0,4-3l1.27,1.24A24.8,24.8,0,0,1,484.44,204.08Z"/><path class="a654d739-6ca1-4333-a435-ec8604cdc6e4" d="M508.09,200.71a9.6,9.6,0,0,1-5,5.23,9.25,9.25,0,0,1-3.82.78,9.14,9.14,0,0,1-3.81-.78,9.59,9.59,0,0,1-3-2.1,9.28,9.28,0,0,1-2-3.06,9.7,9.7,0,0,1-.72-3.72V197a9.85,9.85,0,0,1,2.72-6.82,9.59,9.59,0,0,1,3-2.13,9.33,9.33,0,0,1,3.83-.78,9.14,9.14,0,0,1,3.81.78,9.7,9.7,0,0,1,3,2.1,9.28,9.28,0,0,1,2,3.06,9.63,9.63,0,0,1,.71,3.72V197A9.7,9.7,0,0,1,508.09,200.71ZM506.91,197a8.43,8.43,0,0,0-.59-3.14,7.83,7.83,0,0,0-1.63-2.56,7.54,7.54,0,0,0-2.45-1.7,7.32,7.32,0,0,0-3-.62,7.41,7.41,0,0,0-3.06.63,7.68,7.68,0,0,0-2.42,1.71,7.57,7.57,0,0,0-1.57,2.52,8.39,8.39,0,0,0-.57,3.09V197a8.23,8.23,0,0,0,.59,3.14,7.83,7.83,0,0,0,1.63,2.56,7.56,7.56,0,0,0,5.47,2.32,7.26,7.26,0,0,0,3.06-.64,7.61,7.61,0,0,0,2.42-1.7,8,8,0,0,0,1.57-2.52,8.39,8.39,0,0,0,.57-3.09Z"/><path class="a654d739-6ca1-4333-a435-ec8604cdc6e4" d="M532,201.05a9.58,9.58,0,0,1-2.06,3.06,9.06,9.06,0,0,1-2.9,1.94,8.5,8.5,0,0,1-3.3.67,8.64,8.64,0,0,1-2.55-.36,8.13,8.13,0,0,1-2.1-1,8.78,8.78,0,0,1-1.67-1.42,12.5,12.5,0,0,1-1.34-1.68v4h-1.78V179.67h1.78v12.18a13,13,0,0,1,1.35-1.75,9.06,9.06,0,0,1,1.7-1.46,8.52,8.52,0,0,1,2.08-1,7.81,7.81,0,0,1,2.53-.38,8.66,8.66,0,0,1,3.3.65,8.94,8.94,0,0,1,2.9,1.9,9.49,9.49,0,0,1,2.06,3,10.15,10.15,0,0,1,.78,4.07V197A10.1,10.1,0,0,1,532,201.05ZM530.89,197a9,9,0,0,0-.58-3.32,7.57,7.57,0,0,0-1.59-2.53,7.18,7.18,0,0,0-8-1.59,7.84,7.84,0,0,0-2.43,1.64,8.2,8.2,0,0,0-1.69,2.52A7.91,7.91,0,0,0,516,197V197a8.09,8.09,0,0,0,.64,3.27,7.81,7.81,0,0,0,1.69,2.51,7.61,7.61,0,0,0,2.43,1.62,7.19,7.19,0,0,0,2.84.59,7.41,7.41,0,0,0,2.87-.55,6.81,6.81,0,0,0,2.32-1.57,7.46,7.46,0,0,0,1.55-2.49,9.25,9.25,0,0,0,.56-3.34Z"/><path class="a654d739-6ca1-4333-a435-ec8604cdc6e4" d="M548.21,189.37a8,8,0,0,0-3.06.6,7.24,7.24,0,0,0-2.57,1.79,8.63,8.63,0,0,0-1.77,2.91,11.22,11.22,0,0,0-.66,4v7.61h-1.78V187.69h1.78V193a10.76,10.76,0,0,1,1.39-2.3,9.45,9.45,0,0,1,1.89-1.8,7.93,7.93,0,0,1,2.32-1.13,8.26,8.26,0,0,1,2.64-.35v2Z"/><path class="a654d739-6ca1-4333-a435-ec8604cdc6e4" d="M569.15,200.71a9.6,9.6,0,0,1-5,5.23,9.27,9.27,0,0,1-3.83.78,9.13,9.13,0,0,1-3.8-.78,9.59,9.59,0,0,1-3-2.1,9.46,9.46,0,0,1-2-3.06,9.89,9.89,0,0,1-.71-3.72V197a9.89,9.89,0,0,1,.71-3.72,9.69,9.69,0,0,1,2-3.1,9.48,9.48,0,0,1,3-2.13,9.3,9.3,0,0,1,3.83-.78,9.21,9.21,0,0,1,3.81.78,9.66,9.66,0,0,1,3,2.1,9.3,9.3,0,0,1,2,3.06,9.81,9.81,0,0,1,.71,3.72V197A9.89,9.89,0,0,1,569.15,200.71ZM568,197a8.43,8.43,0,0,0-.59-3.14,7.83,7.83,0,0,0-1.63-2.56,7.64,7.64,0,0,0-2.45-1.7,7.71,7.71,0,0,0-6.08,0,7.55,7.55,0,0,0-4,4.23,8.6,8.6,0,0,0-.56,3.09V197a8.42,8.42,0,0,0,.58,3.14,8,8,0,0,0,1.63,2.56,7.69,7.69,0,0,0,2.46,1.7,7.45,7.45,0,0,0,3,.62,7.26,7.26,0,0,0,3.06-.64,7.46,7.46,0,0,0,2.41-1.7,7.8,7.8,0,0,0,1.58-2.52,8.39,8.39,0,0,0,.57-3.09Z"/><path class="a654d739-6ca1-4333-a435-ec8604cdc6e4" d="M587.3,203.47a5.1,5.1,0,0,1-1.36,1.71,6.65,6.65,0,0,1-2,1.09,8.21,8.21,0,0,1-2.52.38,11.56,11.56,0,0,1-4.08-.77,12.34,12.34,0,0,1-3.54-2l1.06-1.42A12.85,12.85,0,0,0,578,204.3a9.73,9.73,0,0,0,3.46.64,5.27,5.27,0,0,0,3.19-.95,3,3,0,0,0,1.29-2.58v-.08a2.36,2.36,0,0,0-.4-1.38,3.7,3.7,0,0,0-1.09-1,7.08,7.08,0,0,0-1.57-.72c-.58-.2-1.2-.39-1.86-.59s-1.51-.45-2.28-.69a9,9,0,0,1-2.06-.93,4.69,4.69,0,0,1-1.47-1.4,3.56,3.56,0,0,1-.57-2.07v-.07a4.55,4.55,0,0,1,.46-2.06,4.93,4.93,0,0,1,1.26-1.62,5.71,5.71,0,0,1,1.93-1.07,7.82,7.82,0,0,1,2.48-.38,12.16,12.16,0,0,1,6.59,2.08l-.94,1.49a12.19,12.19,0,0,0-2.76-1.35,9,9,0,0,0-3-.51,4.77,4.77,0,0,0-3.08.93,2.87,2.87,0,0,0-1.14,2.31v.07a2.12,2.12,0,0,0,.43,1.33,3.64,3.64,0,0,0,1.15,1,8.54,8.54,0,0,0,1.66.71c.63.21,1.28.41,1.93.6s1.5.46,2.23.71a8.58,8.58,0,0,1,2,1,4.92,4.92,0,0,1,1.41,1.43,3.85,3.85,0,0,1,.53,2.08v.07A5,5,0,0,1,587.3,203.47Z"/></g></svg>